<svg width="200" height="200" viewBox="0 0 200 200" fill="none" xmlns="http://www.w3.org/2000/svg">
  <rect width="200" height="200" fill="#f3f4f6"/>
  <path d="M100 80C88.9543 80 80 88.9543 80 100C80 111.046 88.9543 120 100 120C111.046 120 120 111.046 120 100C120 88.9543 111.046 80 100 80ZM100 110C94.4772 110 90 105.523 90 100C90 94.4772 94.4772 90 100 90C100.552 90 101 90.4477 101 91V99H109C109.552 99 110 99.4477 110 100C110 105.523 105.523 110 100 110Z" fill="#9ca3af"/>
  <text x="100" y="140" text-anchor="middle" font-family="Arial, sans-serif" font-size="12" fill="#6b7280">Product Image</text>
</svg>
